<?xml version="1.0" encoding="UTF-8" standalone="no"?>
<svg
   xmlns:dc="http://purl.org/dc/elements/1.1/"
   xmlns:cc="http://creativecommons.org/ns#"
   xmlns:rdf="http://www.w3.org/1999/02/22-rdf-syntax-ns#"
   xmlns:svg="http://www.w3.org/2000/svg"
   xmlns="http://www.w3.org/2000/svg"
   xmlns:sodipodi="http://sodipodi.sourceforge.net/DTD/sodipodi-0.dtd"
   xmlns:inkscape="http://www.inkscape.org/namespaces/inkscape"
   version="1.0"
   width="64pt"
   height="64pt"
   viewBox="0 -535 600 600"
   preserveAspectRatio="xMidYMid meet"
   id="svg10"
   sodipodi:docname="wifi.svg"
   inkscape:version="0.92.2 (5c3e80d, 2017-08-06)">
  <defs
     id="defs14" />
  <sodipodi:namedview
     pagecolor="#ffffff"
     bordercolor="#666666"
     borderopacity="1"
     objecttolerance="10"
     gridtolerance="10"
     guidetolerance="10"
     inkscape:pageopacity="0"
     inkscape:pageshadow="2"
     inkscape:window-width="1920"
     inkscape:window-height="1001"
     id="namedview12"
     showgrid="false"
     inkscape:zoom="3.337544"
     inkscape:cx="132.41403"
     inkscape:cy="65.799135"
     inkscape:window-x="1911"
     inkscape:window-y="-9"
     inkscape:window-maximized="1"
     inkscape:current-layer="svg10"
     inkscape:pagecheckerboard="true"
     viewbox-width="600" />
  <metadata
     id="metadata2">
Created by potrace 1.15, written by Peter Selinger 2001-2017
<rdf:RDF>
  <cc:Work
     rdf:about="">
    <dc:format>image/svg+xml</dc:format>
    <dc:type
       rdf:resource="http://purl.org/dc/dcmitype/StillImage" />
    <dc:title></dc:title>
  </cc:Work>
</rdf:RDF>
</metadata>
  <g
     transform="matrix(0.1,0,0,-0.1,0,64.000008)"
     id="g8"
     style="fill:#ffffff;stroke:none">
    <path
       d="m 4057,5534 c -282,-51 -633,-252 -963,-554 l -78,-71 -45,45 c -235,226 -579,446 -833,531 -285,95 -524,67 -677,-78 -179,-171 -261,-533 -221,-972 12,-123 44,-322 69,-430 l 18,-72 -76,-22 C 1115,3871 908,3789 775,3723 416,3544 192,3328 125,3096 c -27,-93 -18,-241 21,-331 127,-296 496,-566 1018,-744 82,-28 151,-53 153,-54 1,-2 -8,-57 -22,-123 -43,-207 -56,-314 -62,-505 -13,-406 63,-671 241,-837 270,-254 792,-134 1341,309 66,53 138,115 160,138 21,23 44,41 49,41 6,0 31,-20 56,-44 90,-87 257,-220 380,-301 276,-183 521,-275 737,-275 164,0 282,49 386,159 72,77 114,152 156,277 52,155 65,255 65,489 0,222 -9,319 -51,530 -14,72 -26,136 -27,144 -1,8 43,28 124,55 353,120 636,277 825,458 253,241 312,466 189,717 -40,81 -60,108 -153,201 -202,203 -462,350 -849,480 -79,27 -146,50 -148,52 -2,3 5,45 16,94 47,216 63,371 64,599 0,169 -4,242 -17,315 -85,459 -333,664 -720,594 z m 232,-260 c 231,-68 315,-560 196,-1148 -14,-65 -27,-121 -30,-124 -2,-3 -64,7 -137,22 -186,37 -357,63 -503,78 l -126,12 -68,96 c -90,125 -209,275 -325,409 l -94,107 92,81 c 285,253 540,407 766,463 94,23 161,24 229,4 z m -2242,-32 c 221,-75 488,-244 717,-455 l 70,-63 -84,-95 c -108,-122 -216,-256 -323,-400 l -86,-116 -87,-7 c -114,-10 -376,-48 -539,-80 -71,-14 -132,-22 -136,-18 -4,4 -19,64 -33,135 -117,581 -46,1040 175,1124 61,23 220,11 326,-25 z m 1059,-804 c 89,-103 234,-283 234,-289 0,-3 -146,-5 -324,-5 h -324 l 21,31 c 61,85 294,355 306,355 5,0 44,-42 87,-92 z m 372,-565 63,-6 58,-86 c 124,-185 327,-534 435,-750 l 37,-72 -84,-162 c -134,-257 -371,-657 -435,-737 l -19,-23 -374,-5 c -206,-3 -439,-1 -519,3 l -145,7 -54,81 c -177,266 -471,785 -471,833 0,53 432,808 515,902 18,20 273,31 620,26 171,-2 338,-7 373,-11 z m -1340,-65 c -43,-65 -176,-294 -239,-408 -39,-71 -72,-130 -74,-130 -8,0 -175,455 -175,476 0,8 418,82 469,83 32,1 33,0 19,-21 z m 1852,12 c 188,-29 390,-73 390,-85 0,-30 -151,-439 -169,-457 -3,-4 -33,41 -65,100 -56,102 -212,366 -250,425 -18,27 -18,27 5,27 13,0 53,-5 89,-10 z M 1415,3623 c 27,-93 142,-396 204,-538 l 57,-130 -33,-73 c -55,-123 -168,-410 -208,-532 -21,-63 -41,-118 -44,-123 -4,-4 -52,8 -107,27 -460,156 -799,385 -897,606 -26,61 -27,142 0,200 81,179 327,364 670,506 91,38 309,113 330,114 6,0 19,-26 28,-57 z m 3335,21 c 206,-65 438,-173 590,-272 115,-76 258,-219 296,-297 59,-121 30,-226 -100,-363 -164,-174 -421,-322 -756,-437 l -128,-43 -42,121 c -52,147 -130,342 -199,496 l -52,114 52,116 c 64,145 146,355 189,486 39,118 37,115 53,110 7,-2 50,-16 97,-31 z M 1953,2420 c 42,-74 105,-182 141,-240 35,-58 64,-105 63,-106 -9,-7 -496,72 -506,82 -7,7 35,131 107,321 l 66,173 27,-48 c 14,-26 60,-108 102,-182 z m 2319,88 c 82,-204 129,-336 120,-342 -23,-14 -483,-91 -501,-84 -5,2 37,80 93,174 55,93 128,220 161,282 33,61 62,112 65,112 3,0 31,-64 62,-142 z m 218,-685 c 35,-160 51,-285 57,-448 12,-312 -41,-544 -151,-664 -58,-62 -103,-81 -202,-81 -233,0 -576,181 -907,481 l -78,71 41,46 c 93,107 281,345 358,453 l 83,115 154,17 c 154,17 463,66 565,90 30,8 56,13 58,12 1,-1 11,-42 22,-92 z m -2550,17 c 80,-11 205,-26 279,-34 99,-9 135,-16 142,-28 31,-56 287,-378 416,-522 l 62,-71 -42,-43 c -23,-24 -87,-80 -142,-125 -358,-289 -730,-438 -928,-371 -58,20 -129,94 -163,171 -47,107 -66,205 -71,388 -6,198 4,317 48,540 l 31,160 112,-22 c 61,-12 176,-31 256,-43 z m 1342,-161 c -39,-50 -112,-141 -163,-201 l -93,-109 -55,62 c -80,90 -271,323 -271,331 0,6 637,17 649,11 2,-1 -29,-43 -67,-94 z"
       id="path4"
       style="fill:#ffffff"
       inkscape:connector-curvature="0" />
    <path
       d="m 2940,3480 c -117,-16 -220,-71 -306,-163 -151,-161 -184,-383 -88,-585 104,-217 364,-338 597,-277 246,64 411,290 394,540 -15,207 -133,373 -324,453 -45,19 -174,44 -208,40 -5,0 -35,-4 -65,-8 z"
       id="path6"
       style="fill:#ffffff"
       inkscape:connector-curvature="0" />
  </g>
</svg>
