<?xml version="1.0" encoding="UTF-8" standalone="no"?>
<svg
   xmlns:dc="http://purl.org/dc/elements/1.1/"
   xmlns:cc="http://creativecommons.org/ns#"
   xmlns:rdf="http://www.w3.org/1999/02/22-rdf-syntax-ns#"
   xmlns:svg="http://www.w3.org/2000/svg"
   xmlns="http://www.w3.org/2000/svg"
   xmlns:sodipodi="http://sodipodi.sourceforge.net/DTD/sodipodi-0.dtd"
   xmlns:inkscape="http://www.inkscape.org/namespaces/inkscape"
   version="1.0"
   width="64pt"
   height="64pt"
   viewBox="0 -535 600 600"
   preserveAspectRatio="xMidYMid meet"
   id="svg16"
   sodipodi:docname="globe (1).svg"
   inkscape:version="0.92.2 (5c3e80d, 2017-08-06)">
  <defs
     id="defs20" />
  <sodipodi:namedview
     pagecolor="#ffffff"
     bordercolor="#666666"
     borderopacity="1"
     objecttolerance="10"
     gridtolerance="10"
     guidetolerance="10"
     inkscape:pageopacity="0"
     inkscape:pageshadow="2"
     inkscape:window-width="1920"
     inkscape:window-height="1001"
     id="namedview18"
     showgrid="false"
     inkscape:zoom="3.337544"
     inkscape:cx="-26.146063"
     inkscape:cy="107.21346"
     inkscape:window-x="-9"
     inkscape:window-y="-9"
     inkscape:window-maximized="1"
     inkscape:current-layer="g14"
     inkscape:snap-bbox="false"
     inkscape:snap-global="false"
     inkscape:pagecheckerboard="true"
     viewbox-y="-535" />
  <metadata
     id="metadata2">
Created by potrace 1.15, written by Peter Selinger 2001-2017
<rdf:RDF>
  <cc:Work
     rdf:about="">
    <dc:format>image/svg+xml</dc:format>
    <dc:type
       rdf:resource="http://purl.org/dc/dcmitype/StillImage" />
    <dc:title></dc:title>
  </cc:Work>
</rdf:RDF>
</metadata>
  <g
     transform="matrix(0.1,0,0,-0.1,0,64.000008)"
     id="g14"
     style="fill:#000000;stroke:none">
    <g
       id="g844"
       style="fill:#ffffff">
      <path
         id="path4"
         d="m 2844,5849 c -123,-20 -277,-92 -386,-180 -172,-138 -262,-335 -286,-624 -8,-99 -14,-130 -37,-175 -35,-69 -30,-112 30,-256 58,-139 221,-456 280,-543 60,-92 212,-251 285,-300 70,-46 196,-91 279,-98 37,-4 87,1 135,11 286,64 506,322 754,886 91,207 91,206 53,289 -26,56 -33,89 -42,182 -19,206 -62,352 -140,468 -117,175 -344,313 -560,341 -97,12 -291,11 -365,-1 z m 856,-743 c 60,-27 65,-167 10,-280 -18,-37 -36,-69 -41,-71 -23,-15 -376,38 -539,81 l -95,25 -132,-40 c -166,-50 -307,-81 -377,-82 -101,-3 -157,57 -177,192 -15,95 -3,159 31,176 34,18 235,16 390,-2 161,-19 415,-19 539,0 53,8 114,16 136,18 71,5 229,-5 255,-17 z"
         inkscape:connector-curvature="0"
         style="fill:#ffffff" />
      <path
         id="path6"
         d="m 4006,5670 c -51,-26 -79,-52 -116,-110 -65,-102 -45,-149 38,-89 40,28 58,34 114,37 86,5 100,-2 355,-182 110,-78 227,-156 260,-173 95,-51 224,-85 329,-86 99,-2 127,9 122,47 -3,19 -12,22 -93,27 -215,16 -378,69 -502,165 -89,67 -219,191 -211,200 4,4 79,-18 165,-49 230,-82 229,-82 408,-81 222,0 315,30 315,100 0,24 -3,26 -27,20 -138,-32 -202,-39 -363,-40 -119,-1 -189,3 -219,12 -24,8 -125,53 -225,102 -178,87 -260,120 -294,120 -9,-1 -35,-10 -56,-20 z"
         inkscape:connector-curvature="0"
         style="fill:#ffffff" />
      <path
         id="path8"
         d="m 1281,5356 c -62,-34 -65,-94 -10,-195 58,-105 423,-740 651,-1130 104,-178 193,-334 198,-346 12,-32 3,-37 -110,-69 -195,-55 -329,-140 -428,-272 -95,-127 -217,-393 -189,-411 16,-10 2963,-16 3177,-6 193,9 181,-7 116,153 -136,337 -343,494 -733,556 -170,26 -234,18 -373,-49 -193,-93 -304,-127 -455,-139 -97,-8 -149,-8 -208,1 -144,22 -350,101 -478,183 -54,35 -58,40 -301,459 -135,233 -314,543 -398,689 -193,337 -304,522 -336,560 -20,23 -34,30 -62,30 -21,-1 -48,-7 -61,-14 z"
         inkscape:connector-curvature="0"
         style="fill:#ffffff" />
      <path
         id="path10"
         d="m 1130,2850 c -157,-3 -286,-7 -287,-8 -2,-1 -16,-21 -33,-44 -24,-32 -30,-51 -30,-90 0,-39 302,-1613 406,-2118 29,-139 48,-178 102,-212 l 37,-23 h 1720 c 1702,0 1720,0 1754,20 56,33 69,61 111,250 40,179 336,1663 385,1930 30,164 27,202 -20,253 l -32,36 -114,7 c -130,9 -3567,8 -3999,-1 z m 3705,-230 c 64,-31 146,-109 180,-172 27,-49 29,-60 29,-163 0,-102 -2,-114 -28,-163 -34,-62 -114,-140 -177,-173 -38,-20 -58,-23 -154,-23 -96,0 -116,3 -154,23 -62,33 -142,111 -177,173 -26,48 -29,62 -29,148 0,134 16,179 89,257 92,99 156,125 293,119 59,-3 95,-10 128,-26 z"
         inkscape:connector-curvature="0"
         style="fill:#ffffff" />
      <path
         id="path12"
         d="m 1412,300 c -246,-5 -265,-6 -278,-24 -14,-20 -19,-82 -8,-110 6,-15 184,-16 1920,-16 h 1913 l 16,30 c 21,40 19,73 -6,96 -20,18 -55,19 -953,25 -1075,7 -2224,7 -2604,-1 z"
         inkscape:connector-curvature="0"
         style="fill:#ffffff" />
    </g>
  </g>
</svg>
