<?xml version="1.0" encoding="UTF-8" standalone="no"?>
<svg
   xmlns:dc="http://purl.org/dc/elements/1.1/"
   xmlns:cc="http://creativecommons.org/ns#"
   xmlns:rdf="http://www.w3.org/1999/02/22-rdf-syntax-ns#"
   xmlns:svg="http://www.w3.org/2000/svg"
   xmlns="http://www.w3.org/2000/svg"
   xmlns:sodipodi="http://sodipodi.sourceforge.net/DTD/sodipodi-0.dtd"
   xmlns:inkscape="http://www.inkscape.org/namespaces/inkscape"
   version="1.0"
   width="64pt"
   height="64pt"
   viewBox="0 -535 600 600"
   preserveAspectRatio="xMidYMid meet"
   id="svg12"
   sodipodi:docname="rain.svg"
   inkscape:version="0.92.2 (5c3e80d, 2017-08-06)">
  <defs
     id="defs16" />
  <sodipodi:namedview
     pagecolor="#ffffff"
     bordercolor="#666666"
     borderopacity="1"
     objecttolerance="10"
     gridtolerance="10"
     guidetolerance="10"
     inkscape:pageopacity="0"
     inkscape:pageshadow="2"
     inkscape:window-width="958"
     inkscape:window-height="991"
     id="namedview14"
     showgrid="false"
     inkscape:pagecheckerboard="true"
     inkscape:zoom="3.337544"
     inkscape:cx="35.988934"
     inkscape:cy="67.297243"
     inkscape:window-x="-8"
     inkscape:window-y="0"
     inkscape:window-maximized="0"
     inkscape:current-layer="svg12" />
  <metadata
     id="metadata2">
Created by potrace 1.15, written by Peter Selinger 2001-2017
<rdf:RDF>
  <cc:Work
     rdf:about="">
    <dc:format>image/svg+xml</dc:format>
    <dc:type
       rdf:resource="http://purl.org/dc/dcmitype/StillImage" />
    <dc:title></dc:title>
  </cc:Work>
</rdf:RDF>
</metadata>
  <g
     transform="matrix(0.1,0,0,-0.1,0,64.000008)"
     id="g10"
     style="fill:#ffffff;stroke:none">
    <path
       d="m 2850,5864 c -582,-53 -906,-290 -1044,-765 -71,-247 -108,-766 -75,-1067 42,-394 199,-730 464,-996 126,-127 254,-218 420,-301 191,-95 278,-119 440,-119 113,0 142,4 220,28 141,43 267,102 393,186 433,286 690,744 721,1281 11,189 -4,573 -28,737 -91,607 -376,908 -943,997 -99,16 -467,28 -568,19 z M 2679,4841 c 17,-27 66,-82 108,-121 132,-123 342,-210 578,-239 126,-15 347,-14 495,4 117,13 271,39 314,52 18,5 18,-4 13,-258 -6,-290 -18,-373 -77,-550 -143,-433 -507,-786 -922,-896 -143,-38 -282,-13 -483,87 -345,171 -615,497 -719,868 -47,164 -59,270 -60,503 v 217 l 37,56 c 138,208 350,315 643,325 38,1 43,-2 73,-48 z"
       id="path4"
       style="fill:#ffffff"
       inkscape:connector-curvature="0" />
    <path
       d="m 2232,4410 c -104,-13 -151,-28 -178,-55 -21,-21 -24,-33 -24,-97 0,-53 5,-80 17,-97 9,-14 26,-75 39,-136 30,-153 51,-197 111,-235 69,-44 133,-60 258,-67 195,-10 341,31 419,119 51,56 79,109 116,222 26,78 28,81 60,84 18,2 37,-1 42,-6 5,-5 24,-51 41,-103 77,-222 186,-302 432,-316 157,-9 287,17 357,70 59,45 77,81 103,213 13,63 34,136 46,160 18,37 21,57 16,106 -10,112 -62,133 -357,144 -274,11 -420,-10 -573,-81 -77,-36 -134,-31 -242,17 -44,20 -107,42 -140,48 -78,15 -449,21 -543,10 z m 525,-134 c 40,-10 84,-27 99,-38 25,-20 26,-25 22,-89 -8,-99 -65,-212 -132,-257 -75,-50 -141,-65 -260,-59 -55,2 -118,10 -138,16 -81,25 -130,93 -148,204 -19,121 19,213 98,236 57,16 372,7 459,-13 z m 1090,1 c 52,-28 68,-68 68,-173 0,-81 -3,-97 -30,-149 -27,-52 -38,-63 -90,-90 -57,-29 -63,-30 -189,-30 -147,1 -200,16 -264,78 -56,53 -112,188 -112,269 0,79 142,118 425,115 131,-2 166,-5 192,-20 z"
       id="path6"
       style="fill:#ffffff"
       inkscape:connector-curvature="0" />
    <path
       d="M 2174,2734 C 2029,2657 1529,2384 1385,2302 1050,2112 994,2070 904,1935 818,1804 751,1647 679,1402 634,1248 580,992 580,934 c 0,-59 60,-151 162,-250 337,-325 958,-519 1839,-575 246,-15 961,-6 1169,15 661,68 1120,202 1454,423 126,83 259,215 305,302 l 33,63 -11,77 c -55,351 -175,722 -297,919 -103,165 -197,230 -810,565 -483,264 -548,297 -579,297 -18,0 -60,-22 -117,-61 -112,-76 -269,-152 -375,-180 -50,-13 -90,-30 -101,-43 -11,-12 -54,-106 -97,-211 -43,-104 -82,-200 -88,-213 -9,-19 -21,4 -94,180 -45,112 -88,213 -95,226 -16,30 -30,37 -135,68 -117,34 -226,87 -348,168 -60,40 -110,66 -126,66 -14,0 -57,-16 -95,-36 z M 3200,1415 c 0,-9 -39,-149 -87,-310 l -87,-295 h -46 c -26,0 -49,2 -52,5 -5,5 163,583 176,603 4,7 27,12 52,12 33,0 44,-4 44,-15 z m -400,-167 v -53 l -135,-59 c -74,-32 -135,-61 -135,-65 0,-4 61,-33 135,-65 l 135,-59 v -53 c 0,-30 -2,-54 -4,-54 -2,0 -95,43 -207,95 l -204,94 v 42 42 l 200,94 c 110,51 203,93 208,93 4,0 7,-24 7,-52 z m 738,-44 193,-88 -3,-45 -3,-46 -199,-92 c -110,-50 -203,-90 -208,-87 -13,8 -9,91 5,101 6,5 69,34 140,64 70,29 127,56 127,60 0,4 -62,33 -137,66 l -138,59 -3,38 c -4,46 4,70 21,63 6,-2 99,-44 205,-93 z"
       id="path8"
       style="fill:#ffffff"
       inkscape:connector-curvature="0" />
  </g>
</svg>
